<?xml version="1.0" encoding="UTF-8"?>
<svg id="Layer_1" data-name="Layer 1" xmlns="http://www.w3.org/2000/svg" viewBox="0 0 544.31 360.06">
  <defs>
    <style>
      .cls-1 {
        stroke-miterlimit: 10;
      }

      .cls-1, .cls-2 {
        fill: none;
        stroke: red;
        stroke-width: .06px;
      }

      .cls-2 {
        stroke-miterlimit: 11.34;
      }
    </style>
  </defs>
  <path class="cls-2" d="M158.77,269.32h-42.52v17.01h-56.69v-17.01H17.04v17.01H.03v56.69h17.01v17.01h42.52v-17.01h56.69v17.01h42.52v-17.01h17.01v-56.69h-17.01v-17.01Z"/>
  <path class="cls-2" d="M343.02,269.32h-42.52v17.01h-56.69v-17.01h-42.52v17.01h-17.01v56.69h17.01v17.01h42.52v-17.01h56.69v17.01h42.52v-17.01h17.01v-56.69h-17.01v-17.01Z"/>
  <path class="cls-2" d="M175.78,187.11v-17.01h-59.53v17.01h-56.69v-17.01H.03v17.01h17.01v56.69H.03v17.01h59.53v-17.01h56.69v17.01h59.53v-17.01h-17.01v-56.69h17.01Z"/>
  <path class="cls-2" d="M360.03,187.11v-17.01h-59.53v17.01h-56.69v-17.01h-59.53v17.01h17.01v56.69h-17.01v17.01h59.53v-17.01h56.69v17.01h59.53v-17.01h-17.01v-56.69h17.01Z"/>
  <path class="cls-2" d="M484.75,184.28h-56.69v17.01h-42.52v42.52h-17.01v56.69h17.01v42.52h42.52v17.01h56.69v-17.01h42.52v-42.52h17.01v-56.69h-17.01v-42.52h-42.52v-17.01Z"/>
  <path class="cls-2" d="M484.75.03h-56.69v17.01h-42.52v42.52h-17.01v56.69h17.01v42.52h42.52v17.01h56.69v-17.01h42.52v-42.52h17.01v-56.69h-17.01V17.04h-42.52V.03Z"/>
  <circle class="cls-1" cx="456.41" cy="87.9" r="42.52"/>
  <circle class="cls-1" cx="456.41" cy="272.15" r="3.54"/>
</svg>